<svg enable-background="new 0 0 853 480" height="480" viewBox="0 0 853 480" width="853" xmlns="http://www.w3.org/2000/svg"><path d="m146.604 106.733 493.035-89.181c26.34-4.645 51.441 12.696 56.398 39.018l50.202 277.451c4.648 26.319-12.706 51.401-39.045 56.356l-493.035 88.87c-26.341 4.645-51.441-12.695-56.399-39.017l-50.202-277.45c-4.958-26.32 12.706-51.402 39.046-56.047z" opacity=".15"/><path d="m145.589 96.515 491.175-90.109c26.341-4.955 51.44 12.386 56.09 38.707l50.822 276.212c4.958 26.321-12.396 51.401-38.736 56.048l-491.175 90.109c-26.34 4.955-51.442-12.387-56.09-38.706l-50.821-276.214c-4.959-26.321 12.394-51.402 38.735-56.047z" fill="#d94d6a"/><path d="m152.182 55.331 498.922-46.139c26.649-2.478 50.201 17.03 52.681 43.661l26.031 280.548c2.479 26.631-17.045 50.165-43.694 52.642l-498.923 46.139c-26.649 2.479-50.202-17.031-52.681-43.662l-26.03-280.547c-2.479-26.631 17.043-50.166 43.694-52.642z" opacity=".15"/><path d="m152.182 46.351 498.922-46.139c26.649-2.477 50.201 17.031 52.681 43.661l26.03 280.548c2.479 26.63-17.044 50.163-43.693 52.642l-498.923 46.139c-26.649 2.477-50.202-17.031-52.681-43.661l-26.03-280.547c-2.479-26.324 17.043-50.166 43.694-52.643z" fill="#92cab1"/><path d="m155.591 8.882h501.091c26.65 0 48.342 21.676 48.342 48.306v281.785c0 26.631-21.689 48.308-48.342 48.308h-501.092c-26.649 0-48.342-21.677-48.342-48.308v-281.785c0-26.63 21.693-48.306 48.343-48.306z" opacity=".15"/><path d="m155.591.212h501.091c26.65 0 48.342 21.676 48.342 48.306v281.786c0 26.631-21.689 48.308-48.342 48.308h-501.092c-26.649 0-48.342-21.677-48.342-48.308v-281.786c0-26.94 21.693-48.306 48.343-48.306z" fill="#f6c358"/><path d="m338.736 231.524c-6.817 0-13.635-.311-20.453-1.238-18.593 16.412-40.905 28.179-65.077 34.372-5.268 1.548-10.846 2.478-16.113 3.097-3.408.31-6.197-2.168-6.817-5.264-.62-3.407 1.859-5.574 3.719-8.362 8.987-10.218 19.213-18.579 25.722-42.112-29.131-16.411-47.724-42.112-47.724-70.911 0-49.854 56.709-90.729 127.054-90.729 70.346 0 127.056 40.564 127.056 90.729-.003 50.164-57.332 90.418-127.367 90.418z" fill="#ed7864"/><path d="m329.748 193.746c0-52.951 60.119-95.684 134.183-95.684s134.182 43.043 134.182 95.684c0 30.346-19.832 57.595-50.512 74.937 7.128 25.082 17.974 34.062 27.271 44.591 2.171 2.787 4.959 4.954 4.029 8.672-.62 3.404-3.72 5.882-7.128 5.572-5.889-.619-11.466-1.857-17.044-3.405-25.412-6.192-49.271-18.58-69.104-36.229-7.128.929-14.565 1.238-21.692 1.238-74.066.308-134.185-42.425-134.185-95.376z" fill="#50b5d8"/></svg>