<svg enable-background="new 0 0 853 480" height="480" viewBox="0 0 853 480" width="853" xmlns="http://www.w3.org/2000/svg"><path d="m190.788 148.657h470.53v236.716h-470.53z" fill="#ddd"/><path d="m190.788 148.657h470.53v39.401h-470.53z" fill="#c6c6c6"/><path d="m181.551 0h489.898c5.066 0 8.94 4.18 8.94 8.956v64.477c0 5.074-4.172 8.956-8.94 8.956h-489.898c-5.066 0-8.94-4.18-8.94-8.956v-64.477c.001-5.075 3.875-8.956 8.94-8.956z" fill="#8db7e2"/><path d="m181.551 90.149h489.898c5.066 0 8.94 4.18 8.94 8.954v64.479c0 5.075-4.172 8.956-8.94 8.956h-489.898c-5.066 0-8.94-4.18-8.94-8.956v-64.478c.001-5.075 3.875-8.955 8.94-8.955z" fill="#8db7e2"/><path d="m181.551 397.612h489.898c5.066 0 8.94 4.179 8.94 8.955v64.479c0 5.073-4.172 8.954-8.94 8.954h-489.898c-5.066 0-8.94-4.179-8.94-8.954v-64.479c.001-5.074 3.875-8.955 8.94-8.955z" fill="#8db7e2"/><path d="m256.944 424.776h159.127v28.06h-159.127z" fill="#2376c1"/><path d="m256.944 117.312h128.732v27.762h-128.732z" fill="#2376c1"/><g fill="#8db7e2"><path d="m217.609 197.611h357.891v27.762h-357.891z"/><path d="m217.609 242.688h295.011v27.762h-295.011z"/><path d="m217.609 288.061h234.521v28.06h-234.521z"/><path d="m217.609 333.135h278.921v28.061h-278.921z"/></g><g fill="#2376c1"><path d="m256.944 27.463h168.067v27.761h-168.067z"/><path d="m233.104 437.312c.894.896.894 2.092 0 2.688l-22.647 22.687c-.895.896-2.086.896-2.683 0l-5.064-5.075c-.895-.896-.895-2.089 0-2.687l16.091-16.12-16.091-16.119c-.895-.896-.895-2.089 0-2.686l5.064-5.075c.895-.896 2.086-.896 2.683 0z"/><path d="m233.104 39.702c.894.896.894 2.09 0 2.687l-22.647 22.688c-.895.896-2.086.896-2.683 0l-5.064-5.074c-.895-.896-.895-2.091 0-2.688l16.09-16.419-16.091-16.418c-.895-.896-.895-2.09 0-2.688l5.064-5.074c.895-.896 2.086-.896 2.683 0z"/><path d="m219.396 146.567c-.895.896-2.085.896-2.682 0l-22.647-22.688c-.894-.896-.894-2.09 0-2.687l5.066-5.075c.894-.896 2.086-.896 2.682 0l16.092 16.12 16.39-16.12c.894-.896 2.086-.896 2.683 0l5.066 5.075c.894.896.894 2.09 0 2.687z"/></g></svg>