<svg enable-background="new 0 0 853 480" height="480" viewBox="0 0 853 480" width="853" xmlns="http://www.w3.org/2000/svg" xmlns:xlink="http://www.w3.org/1999/xlink"><linearGradient id="a"><stop offset="0" stop-color="#2b388f"/><stop offset=".3739" stop-color="#293181"/><stop offset="1" stop-color="#262261"/></linearGradient><linearGradient id="b" gradientTransform="matrix(1 0 0 -1 1891.2812 2601.1094)" gradientUnits="userSpaceOnUse" x1="-1610.7644" x2="-1587.4213" xlink:href="#a" y1="2472.0088" y2="2177.8877"/><linearGradient id="c" gradientTransform="matrix(1 0 0 -1 1891.2812 2601.1094)" gradientUnits="userSpaceOnUse" x1="-1336.0129" x2="-1314.4192" xlink:href="#a" y1="2462.8828" y2="2190.8018"/><linearGradient id="d" gradientTransform="matrix(1 0 0 -1 1891.2812 2601.1094)" gradientUnits="userSpaceOnUse" x1="-1601.9089" x2="-1573.5027" y1="2488.8057" y2="2521.9062"><stop offset="0" stop-color="#3960ac"/><stop offset=".2542" stop-color="#3864ae"/><stop offset=".4793" stop-color="#356eb6"/><stop offset=".6934" stop-color="#3180c3"/><stop offset=".8995" stop-color="#2a9ad5"/><stop offset="1" stop-color="#26a9e0"/></linearGradient><linearGradient id="e" gradientTransform="matrix(1 0 0 -1 1891.2812 2601.1094)" gradientUnits="userSpaceOnUse" x1="-1528.3894" x2="-1548.2521" y1="2536.7266" y2="2510.4141"><stop offset="0" stop-color="#26a9e0"/><stop offset=".2702" stop-color="#2e8aca"/><stop offset=".5344" stop-color="#3473b9"/><stop offset=".7831" stop-color="#3865af"/><stop offset="1" stop-color="#3960ac"/></linearGradient><linearGradient id="f"><stop offset="0" stop-color="#26a9e0"/><stop offset=".2559" stop-color="#2a9bd6"/><stop offset=".7369" stop-color="#3377bc"/><stop offset="1" stop-color="#3960ac"/></linearGradient><linearGradient id="g" gradientTransform="matrix(1 0 0 -1 1891.2812 2601.1094)" gradientUnits="userSpaceOnUse" x1="-1347.8191" x2="-1334.4644" xlink:href="#f" y1="2512.2344" y2="2496.4536"/><linearGradient id="h" gradientTransform="matrix(1 0 0 -1 1891.2812 2601.1094)" gradientUnits="userSpaceOnUse" x1="-1402.3982" x2="-1374.9847" y1="2539.3359" y2="2504.8086"><stop offset="0" stop-color="#26a9e0"/><stop offset=".0259" stop-color="#27a5dd"/><stop offset=".2915" stop-color="#3086c7"/><stop offset=".5481" stop-color="#376fb6"/><stop offset=".7894" stop-color="#3b61ac"/><stop offset="1" stop-color="#3c5ca9"/></linearGradient><linearGradient id="i" gradientTransform="matrix(1 0 0 -1 1891.2812 2601.1094)" gradientUnits="userSpaceOnUse" x1="-1472.6667" x2="-1368.3556" xlink:href="#f" y1="2287.4219" y2="2164.1604"/><path d="m405.451 479.498-231.157-156.201-1.134-314.997 232.015 158.896z" fill="url(#b)"/><path d="m448.682 480 231.158-156.201-1.133-314.998-230.133 158.258z" fill="url(#c)"/><path d="m214.942 32.817-.357-32.817s71.65 49.495 110.185 81.206 91.101 83.146 91.101 83.146l-7.91.388z" fill="url(#d)"/><path d="m272.059 36.992v-36.992s59.84 37.121 88.058 65.738 66.455 98.995 66.455 98.995h-6.114s-64.041-61.741-89.924-82.951c-25.884-21.21-58.475-44.79-58.475-44.79z" fill="url(#e)"/><path d="m638.698 32.817.357-32.817s-95.092 72.327-123.285 92.808c-28.193 20.482-78.91 71.933-78.91 71.933l9.732-.006z" fill="url(#g)"/><path d="m581.58 39.055v-39.055s-65.355 25.906-103.586 70.766c-38.23 44.858-49.107 93.969-49.107 93.969h4.295s42.992-46.981 78.49-73.085c35.502-26.105 69.908-52.595 69.908-52.595z" fill="url(#h)"/><path d="m404.885 166.809 43.689.25v312.941l-43.689-.502z" fill="url(#i)"/></svg>