<svg enable-background="new 0 0 853 480" height="480" viewBox="0 0 853 480" width="853" xmlns="http://www.w3.org/2000/svg"><path d="m105.208 25.711v370.733c0 14.396 11.574 25.966 25.979 25.966h225.343v-422.41h-225.342c-14.406 0-25.98 11.57-25.98 25.711z" fill="#345ea5"/><path d="m356.531 0h365.28c14.405 0 25.981 11.57 25.981 25.966v370.734c0 14.397-11.576 25.967-25.981 25.967h-365.28z" fill="#dbdbde"/><g fill="#fff"><path d="m153.569 93.069h100.324v14.141h-100.325z"/><path d="m153.569 125.207h151.515v14.142h-151.515z"/><path d="m153.569 158.115h116.787v14.141h-116.787z"/><path d="m153.569 240.129h66.111v14.141h-66.111z"/><path d="m153.569 274.066h151.515v14.141h-151.515z"/><path d="m153.569 306.46h108.812v14.141h-108.812z"/><path d="m395.374 34.966h313.832v209.533h-313.832z"/><path d="m395.115 234.73h314.089v103.868h-314.089z"/></g><path d="m428.044 66.588h251.064v111.58h-251.064z" fill="#9ab7de"/><ellipse cx="551.261" cy="98.468" fill="#fff" rx="20.064" ry="20.053"/><path d="m428.044 178.168h250.808l-61.995-67.617-49.905 41.908-46.816-35.736-44.245 35.479-47.846-30.338v56.304z" fill="#3d6083"/><path d="m538.142 178.168 29.068-25.452-3.859-3.086-32.668 28.538z" fill="#030403" opacity=".1"/><path d="m446.821 178.168 29.841-25.966-4.115-2.312-32.67 28.279z" fill="#030403" opacity=".1"/><path d="m551.518 217.505h-120.903c-.513 0-1.027-.515-1.027-1.028v-15.17c0-.514.515-1.027 1.027-1.027h120.903c.515 0 1.03.515 1.03 1.027v15.17c0 .513-.258 1.028-1.03 1.028z" fill="#b7b7be"/><path d="m581.102 291.034h-150.487c-.513 0-1.027-.515-1.027-1.028v-15.169c0-.515.515-1.027 1.027-1.027h150.487c.514 0 1.027.514 1.027 1.027v15.169c.258.515-.258 1.028-1.027 1.028z" fill="#b7b7be"/><path d="m649.27 258.639h-218.655c-.514 0-1.028-.514-1.028-1.027v-25.195c0-.515.515-1.029 1.028-1.029h218.655c.514 0 1.028.515 1.028 1.029v25.195c0 .514-.516 1.027-1.028 1.027z" fill="#46b08d"/><path d="m610.683 249.898h-172.35c-.516 0-1.029-.515-1.029-1.027v-7.972c0-.513.514-1.028 1.029-1.028h172.35c.515 0 1.029.516 1.029 1.028v7.972c0 .514-.514 1.027-1.029 1.027z" fill="#295849"/><path d="m641.295 241.93-6.433 6.428-1.285 1.285c-.258.256-.771.256-1.285 0l-1.287-1.285-3.345-3.342c-.257-.26-.257-.771 0-1.286l1.287-1.286c.257-.257.771-.257 1.285 0l2.573 2.572 5.916-5.914c.257-.258.771-.258 1.285 0l1.287 1.285c.259.77.259 1.285.002 1.543z" fill="#fff"/><ellipse cx="482.836" cy="421.639" fill="#345ea5" rx="58.393" ry="58.361"/><path d="m615.057 363.278c32.25 0 58.393 26.13 58.393 58.362 0 32.229-26.143 58.358-58.393 58.358-32.251 0-58.395-26.129-58.395-58.358 0-32.232 26.144-58.362 58.395-58.362z" fill="#345ea5"/><g fill="#fff"><path d="m501.614 399.016-10.289-10.284-32.927 33.166 32.927 32.906 10.289-10.025-22.894-22.881z"/><path d="m597.049 444.778 10.288 10.026 32.928-32.908-32.928-33.165-10.288 10.284 22.894 22.881z"/></g></svg>