<svg enable-background="new 0 0 853 480" height="480" viewBox="0 0 853 480" width="853" xmlns="http://www.w3.org/2000/svg"><path d="m159.801 0h481.068v480h-481.068z" fill="#5443b9"/><path d="m320.059 22.045h86.905v86.712h-86.905z" fill="#fff"/><path d="m412.856 114.635h-98.688v-98.469h98.688zm-86.906-11.757h75.121v-74.954h-75.121z" fill="#5443b9"/><path d="m320.059 108.757h86.905v86.711h-86.905z" fill="#fff"/><path d="m412.856 201.347h-98.688v-98.469h98.688zm-86.906-11.757h75.121v-74.955h-75.121z" fill="#5443b9"/><path d="m320.059 195.763h86.905v86.711h-86.905z" fill="#fff"/><path d="m412.856 288.354h-98.688v-98.47h98.688zm-86.906-11.759h75.121v-74.954h-75.121z" fill="#5443b9"/><path d="m320.059 282.767h86.905v86.714h-86.905z" fill="#fff"/><path d="m412.856 375.357h-98.688v-98.47h98.688zm-86.906-11.756h75.121v-74.954h-75.121z" fill="#5443b9"/><path d="m407.848 282.767h86.904v86.714h-86.904z" fill="#fff"/><path d="m500.644 375.357h-98.688v-98.47h98.688zm-86.904-11.756h75.121v-74.954h-75.121z" fill="#5443b9"/><path d="m232.566 282.767h86.905v86.714h-86.905z" fill="#fff"/><path d="m325.362 375.357h-98.688v-98.47h98.688zm-86.905-11.756h75.12v-74.954h-75.12z" fill="#5443b9"/><path d="m494.457 109.05h86.905v86.713h-86.905z" fill="#fff"/><path d="m587.254 201.641h-98.688v-98.469h98.688zm-86.904-11.757h75.121v-74.954h-75.121z" fill="#5443b9"/><path d="m407.848 109.05h86.904v86.713h-86.904z" fill="#fff"/><path d="m500.644 201.641h-98.688v-98.469h98.688zm-86.904-11.757h75.121v-74.954h-75.121z" fill="#5443b9"/><path d="m232.566 109.05h86.905v86.713h-86.905z" fill="#fff"/><path d="m325.362 201.641h-98.688v-98.469h98.688zm-86.905-11.757h75.12v-74.954h-75.12z" fill="#5443b9"/><path d="m320.059 370.066h86.905v86.712h-86.905z" fill="#fff"/><path d="m412.856 462.657h-98.688v-98.47h98.688zm-86.906-11.758h75.121v-74.954h-75.121z" fill="#5443b9"/><path d="m482.379 315.395c2.65 0 3.535-.293 81.014-21.162 2.946-.884 5.303-2.353 7.365-4.409.295-.295 30.343-33.804 59.802-67.9 63.633-74.071 63.337-79.656 62.454-87.298-2.356-28.513-38.592-61.14-67.756-61.14-1.18 0-2.356 0-3.536 0-7.069.588-13.845.882-79.244 73.189-30.344 33.509-59.508 67.605-59.802 67.899-1.77 2.059-2.946 4.703-3.535 7.348-.59 2.646-2.946 18.812-5.893 37.918-1.474 9.405-2.945 19.106-4.125 26.16-1.178 6.761-1.768 11.17-1.768 14.403v15.284z" fill="#fff"/><path d="m526.569 252.786 32.405 27.63 88.378-100.232-32.7-27.63z" fill="#ffc81a"/><path d="m493.867 225.156 32.7 27.629 88.083-100.232-32.405-27.63z" fill="#d0a700"/><path d="m504.769 277.183c5.008 4.115 10.016 9.112 14.14 14.108l40.359-10.875s-6.188-17.343-27.104-35.273c-20.326-17.342-38.002-20.28-38.002-20.28l-6.479 39.975c5.89 3.526 11.783 7.641 17.086 12.345z" fill="#e29563"/><path d="m487.093 264.837s-5.598 35.861-5.304 35.861c0 .587 37.118-9.407 37.118-9.407-4.419-4.996-9.132-9.699-14.14-14.108-5.302-4.704-11.194-8.819-17.674-12.346z" fill="#363351"/><path d="m583.568 125.792 9.345-10.979 65.34 55.368-9.344 10.979z" fill="#fff"/><path d="m590.788 114.635 65.4 55.556s22.684-20.575 21.505-33.511c-1.768-21.456-33.583-49.087-54.794-47.322-13.255.586-32.111 25.277-32.111 25.277z" fill="#fc707b"/><g fill="#5443b9"><path d="m298.26 303.637v43.209h-14.729v-15.873h-13.552v15.873h-14.729v-43.209h14.729v15.285h13.552v-15.285z"/><path d="m377.8 321.86c2.946 2.646 4.419 5.879 4.419 9.993 0 2.646-.589 5.291-2.062 7.644s-3.535 4.115-6.48 5.585c-2.946 1.47-6.776 2.058-11.194 2.058-2.946 0-6.187-.295-9.132-.882s-5.598-1.764-7.954-2.938l5.008-10.876c1.769.882 3.83 1.764 5.599 2.353 2.062.586 3.83.881 5.892.881 1.767 0 2.946-.295 4.124-.881 1.178-.589 1.473-1.471 1.473-2.646 0-1.178-.589-1.765-1.473-2.354-.884-.588-2.65-.882-5.008-.882h-12.667l2.062-26.16h28.871v10.876h-16.792l-.294 4.115h2.356c5.886.294 10.306 1.764 13.252 4.114z"/><path d="m463.821 305.694c2.945 1.176 5.303 3.232 6.775 5.584 1.473 2.354 2.357 5.291 2.357 8.524s-.886 6.172-2.357 8.524c-1.473 2.351-3.83 4.408-6.775 5.585-2.944 1.174-6.48 2.057-10.312 2.057h-6.187v10.582h-14.729v-43.208h20.916c3.83.295 7.366.883 10.312 2.352zm-6.778 17.931c.886-.883 1.475-2.058 1.475-3.822 0-1.763-.589-2.938-1.475-3.819-.884-.882-2.355-1.471-4.418-1.471h-5.303v9.993h5.303c1.768.588 3.24 0 4.418-.881z"/></g></svg>