<svg enable-background="new 0 0 853 480" height="480" viewBox="0 0 853 480" width="853" xmlns="http://www.w3.org/2000/svg"><path d="m822.655 342.174c0 76.115-86.188 137.826-192.588 137.826-41.887 0-80.66-9.578-112.26-25.857-40.229 20.268-98.266 25.857-98.266 25.857s50.637-27.818 56.682-54.947c-24.318-23.076-38.787-51.787-38.787-82.955 0-76.125 86.189-137.826 192.59-137.826 106.402 0 192.629 61.775 192.629 137.902z" fill="#ed1c24"/><path d="m639.776 283.479c0-8.477-8.211-12.859-18.314-12.859-11.766 0-22.713 7.123-28.451 18.604l-48.695-24.349c14.006-26.265 41.586-44.322 85.359-44.322 42.949 0 74.961 18.057 74.961 52.261 0 41.855-43.771 49.246-43.771 70.311h-56.355c-.029-33.111 35.266-42.957 35.266-59.646zm-43.235 102.867c0-18.312 14.77-32.318 36.109-32.318 21.344 0 36.113 14.006 36.113 32.318 0 18.061-14.771 32.836-36.113 32.836s-36.109-14.78-36.109-32.836z" fill="#fff"/><path d="m30.345 342.175c0 76.114 86.189 137.825 192.588 137.825 41.888 0 80.651-9.575 112.26-25.854 40.216 20.263 98.264 25.854 98.264 25.854s-50.635-27.815-56.68-54.944c24.316-23.075 38.785-51.788 38.785-82.954 0-76.127-86.188-137.827-192.577-137.827-106.387 0-192.64 61.775-192.64 137.9z" fill="#8cc63f"/><path d="m222.556 293.549c0-8.479-8.21-12.865-18.313-12.865-11.767 0-22.712 7.121-28.453 18.605l-48.707-24.348c14.006-26.268 41.586-44.322 85.356-44.322 42.955 0 74.976 18.056 74.976 52.261 0 41.854-43.783 49.246-43.783 70.31h-56.367c-.003-33.106 35.291-42.954 35.291-59.641zm-43.265 102.865c0-18.316 14.771-32.322 36.111-32.322 21.344 0 36.113 14.006 36.113 32.322 0 18.057-14.771 32.836-36.113 32.836-21.341 0-36.111-14.779-36.111-32.836z" fill="#fff"/><path d="m616.821 137.824c0 66.603-66.02 122.174-153.781 135.025-12.527 1.832-38.783 71.041-38.783 71.041s-8.489-64.75-30.36-68.951c-59.707-11.463-162.249-49.375-162.249-137.115-.002-76.125 86.187-137.824 192.586-137.824 106.397 0 192.587 61.699 192.587 137.824z" fill="#0071bc"/><path d="m433.928 113c0-8.479-8.208-12.864-18.315-12.864-11.765 0-22.71 7.121-28.453 18.605l-48.707-24.348c14.005-26.266 41.585-44.322 85.359-44.322 42.954 0 74.973 18.057 74.973 52.263 0 41.854-43.781 49.246-43.781 70.308h-56.369c0-33.108 35.293-42.954 35.293-59.642zm-43.268 102.866c0-18.314 14.771-32.322 36.113-32.322 21.34 0 36.114 13.952 36.114 32.322 0 18.057-14.771 32.835-36.114 32.835-21.342 0-36.113-14.78-36.113-32.835z" fill="#fff"/></svg>