<svg enable-background="new 0 0 853 480" height="480" viewBox="0 0 853 480" width="853" xmlns="http://www.w3.org/2000/svg"><path d="m484.446 460.45c-18.832 18.966-50.123 18.966-69.245 0l-246.264-248.025c-18.832-18.966-18.832-50.479 0-69.738 18.832-18.967 50.123-18.967 69.244 0l246.265 248.025c19.121 19.549 19.121 50.771 0 69.738z" fill="#f0f3fc"/><path d="m447.071 480c-3.766-.291-7.533-.584-11.299-1.751l2.607-9.922c3.188.584 6.084 1.46 9.271 1.46zm11.297-.584-1.737-10.213c3.188-.292 6.085-1.458 8.981-2.333l3.767 9.629c-3.765 1.459-7.242 2.333-11.011 2.917zm-33.027-5.251c-3.478-1.751-6.374-3.794-9.562-6.129l6.374-7.878c2.317 2.043 5.215 3.502 7.822 4.668zm53.889-2.628-5.504-8.461c2.317-1.751 4.634-3.794 7.242-5.835l.29-.294 7.244 7.295-.58.584c-2.607 2.335-5.217 4.67-8.692 6.711zm-71.273-11.087-7.242-7.296 7.242-7.295 7.242 7.295zm87.497-5.836-8.401-5.545c1.735-2.626 3.186-5.544 4.056-8.171l9.562 3.502c-1.451 3.794-2.899 7.296-5.217 10.214zm-101.693-8.462-7.243-7.295 7.243-7.297 7.244 7.297zm109.227-12.548-10.141-1.459c.29-2.043.29-4.084.29-6.128 0-1.167 0-2.042 0-3.211l10.14-.582v3.793c.58 2.628.29 4.962-.289 7.587zm-124.003-2.042-7.242-7.296 7.242-7.294 7.243 7.294zm-14.197-14.59-7.241-7.294 7.241-7.295 7.244 7.295zm127.19-3.209c-.58-3.21-2.029-5.836-3.478-8.462l9.271-4.669c1.738 3.502 3.187 7.004 4.056 10.505zm-141.675-11.38-7.243-7.295 7.243-7.294 7.244 7.294zm133.272-4.669c-.579-1.166-1.738-2.044-2.607-3.209l-4.057-4.086 7.242-7.295 4.056 4.086c1.159 1.458 2.318 2.334 3.479 3.793zm-147.758-9.921-7.243-7.294 7.243-7.296 7.244 7.296zm133.851-4.669-7.242-7.294 7.242-7.295 7.243 7.295zm-148.338-9.921-7.242-7.295 7.242-7.294 7.242 7.294zm133.563-4.668-7.242-7.296 7.242-7.295 7.244 7.295zm-148.048-9.921-7.244-7.295 7.244-7.296 7.243 7.296zm133.853-4.67-7.244-7.294 7.244-7.295 7.242 7.295zm-148.34-9.92-7.244-7.296 7.244-7.295 7.243 7.295zm133.563-4.378-7.244-7.296 7.244-7.294 7.243 7.294zm-148.339-9.92-7.242-7.294 7.242-7.295 7.242 7.295zm134.143-4.96-7.243-7.295 7.243-7.294 7.243 7.294zm-148.339-9.92-7.243-7.296 7.243-7.295 7.243 7.295zm133.562-4.378-7.244-7.295 7.244-7.294 7.243 7.294zm-147.758-9.92-7.243-7.295 7.243-7.296 7.242 7.296zm133.563-4.962-7.243-7.295 7.243-7.295 7.241 7.295zm-148.34-9.92-7.243-7.295 7.243-7.295 7.243 7.295zm134.143-4.377-7.243-7.296 7.243-7.295 7.242 7.295zm-148.338-9.922-7.244-7.295 7.244-7.294 7.243 7.294zm133.562-4.96-7.242-7.295 7.242-7.294 7.243 7.294zm-148.338-9.922-7.243-7.296 7.243-7.293 7.244 7.293zm133.851-4.376-7.242-7.295 7.242-7.296 7.244 7.296zm-148.05-9.921-7.241-7.293 7.241-7.295 7.245 7.295zm133.564-4.668-7.242-7.295 7.242-7.295 7.243 7.295zm-148.338-9.921-7.243-7.295 7.243-7.295 7.242 7.295zm133.853-4.67-7.244-7.294 7.244-7.295 7.243 7.295zm-148.048-10.211c-2.318-3.21-4.346-6.129-6.085-9.63l9.271-4.667c1.447 2.626 3.186 5.251 5.215 7.586zm133.851-4.378-7.242-7.295 7.242-7.295 7.242 7.295zm-14.775-14.59-7.244-7.295 7.244-7.294 7.242 7.294zm-129.797-1.458c-1.158-3.794-1.738-7.588-1.738-11.38l10.141-.583c.291 3.208.58 6.127 1.449 9.337zm115.599-13.131-7.242-7.295 7.242-7.295 7.244 7.295zm-106.618-7.879-10.14-1.458c.579-3.793 1.448-7.586 2.607-11.088l9.561 3.502c-.868 2.917-1.448 6.126-2.028 9.044zm91.841-6.711-7.242-7.294 7.242-7.295 7.244 7.295zm-85.468-10.505-8.401-5.545c2.028-3.209 4.346-6.128 6.953-9.045l7.532 7.295c-2.606 2.335-4.345 4.669-6.084 7.295zm71.273-4.084-3.478-3.502c-1.159-1.168-2.316-2.043-3.767-3.211l6.374-8.169c1.739 1.458 3.188 2.626 4.346 4.085l3.477 3.502zm-58.524-8.753-5.505-8.463c3.188-2.042 6.374-3.794 9.852-5.253l3.767 9.63c-2.9.875-5.506 2.336-8.114 4.086zm43.748-2.919c-2.606-1.458-5.505-2.334-8.401-3.209l2.317-9.921c3.766 1.168 7.242 2.333 10.431 3.793zm-26.945-3.794-1.737-10.213c2.607-.292 5.795-.583 8.402-.583h2.607l-.291 10.211c-.579 0-1.448 0-2.028 0-2.026.001-4.344.294-6.953.585z" fill="#4574ff"/><path d="m207.469 84.036c-11.879 0-21.729-9.92-21.729-21.884s9.851-21.886 21.729-21.886 21.729 9.922 21.729 21.886c-.29 11.963-9.85 21.884-21.729 21.884z" fill="#3d6084"/><path d="m325.677 84.036c-11.879 0-21.729-9.92-21.729-21.884s9.851-21.886 21.729-21.886 21.729 9.922 21.729 21.886c.29 11.963-9.562 21.884-21.729 21.884z" fill="#3d6084"/><path d="m199.357 202.212c-12.458 0-22.598-10.212-22.598-22.76 0-12.546 10.141-22.759 22.598-22.759 12.458 0 22.599 10.213 22.599 22.759-.29 12.547-10.14 22.76-22.599 22.76z" fill="#2c4277"/><g fill="#3d6084"><path d="m325.677 203.671c-11.879 0-21.729-9.921-21.729-21.885 0-11.963 9.851-21.884 21.729-21.884s21.729 9.921 21.729 21.884c.29 11.964-9.562 21.885-21.729 21.885z"/><path d="m444.463 84.036c-11.879 0-21.73-9.92-21.73-21.884s9.85-21.886 21.73-21.886c11.879 0 21.729 9.922 21.729 21.886-.289 11.963-9.85 21.884-21.729 21.884z"/><path d="m444.463 203.671c-11.879 0-21.73-9.921-21.73-21.885 0-11.963 9.85-21.884 21.73-21.884 11.879 0 21.729 9.921 21.729 21.884-.289 11.964-9.85 21.885-21.729 21.885z"/><path d="m207.469 322.723c-11.879 0-21.729-9.921-21.729-21.884 0-11.964 9.851-21.885 21.729-21.885s21.729 9.921 21.729 21.885c-.29 11.963-9.85 21.884-21.729 21.884z"/></g><path d="m325.677 322.723c-11.879 0-21.729-9.921-21.729-21.884 0-11.964 9.851-21.885 21.729-21.885s21.729 9.921 21.729 21.885c.29 11.963-9.562 21.884-21.729 21.884z" fill="#2c4277"/><path d="m207.469 442.358c-11.879 0-21.729-9.921-21.729-21.887 0-11.961 9.851-21.884 21.729-21.884s21.729 9.923 21.729 21.884c-.29 11.967-9.85 21.887-21.729 21.887z" fill="#3d6084"/><path d="m325.677 442.358c-11.879 0-21.729-9.921-21.729-21.887 0-11.961 9.851-21.884 21.729-21.884s21.729 9.923 21.729 21.884c.29 11.967-9.562 21.887-21.729 21.887z" fill="#3d6084"/><path d="m444.463 322.723c-11.879 0-21.73-9.921-21.73-21.884 0-11.964 9.85-21.885 21.73-21.885 11.879 0 21.729 9.921 21.729 21.885-.289 11.963-9.85 21.884-21.729 21.884z" fill="#3d6084"/><path d="m444.463 442.358c-11.879 0-21.73-9.921-21.73-21.887 0-11.961 9.85-21.884 21.73-21.884 11.879 0 21.729 9.923 21.729 21.884-.289 11.967-9.85 21.887-21.729 21.887z" fill="#2c4277"/><g fill="#3d6084"><path d="m562.67 442.358c-11.879 0-21.729-9.921-21.729-21.887 0-11.961 9.851-21.884 21.729-21.884s21.729 9.923 21.729 21.884c.291 11.967-9.85 21.887-21.729 21.887z"/><path d="m681.457 84.036c-11.88 0-21.729-9.92-21.729-21.884s9.851-21.886 21.729-21.886 21.729 9.922 21.729 21.886c-.289 11.963-9.85 21.884-21.729 21.884z"/><path d="m681.457 203.671c-11.88 0-21.729-9.921-21.729-21.885 0-11.963 9.851-21.884 21.729-21.884s21.729 9.921 21.729 21.884c-.289 11.964-9.85 21.885-21.729 21.885z"/><path d="m681.457 322.723c-11.88 0-21.729-9.921-21.729-21.884 0-11.964 9.851-21.885 21.729-21.885s21.729 9.921 21.729 21.885c-.289 11.963-9.85 21.884-21.729 21.884z"/><path d="m681.457 442.358c-11.88 0-21.729-9.921-21.729-21.887 0-11.961 9.851-21.884 21.729-21.884s21.729 9.923 21.729 21.884c-.289 11.967-9.85 21.887-21.729 21.887z"/></g><path d="m562.67 365.033c-27.233 0-49.543-22.178-49.543-49.896v-260.28c0-27.429 22.02-49.896 49.543-49.896 27.233 0 49.542 22.175 49.542 49.896v260.279c0 27.721-22.307 49.897-49.542 49.897z" fill="#daefe0"/><path d="m562.67 370.286c-30.131 0-54.468-24.804-54.468-54.858v-260.572c0-30.348 24.625-54.856 54.468-54.856 29.842 0 54.467 24.802 54.467 54.856v260.279c.291 30.347-24.336 55.151-54.467 55.151zm0-360.075c-24.626 0-44.328 19.842-44.328 44.646v260.279c0 24.802 19.701 44.644 44.328 44.644s44.328-19.842 44.328-44.644v-260.281c0-24.509-19.701-44.644-44.328-44.644z" fill="#84be93"/><path d="m562.67 84.036c-11.879 0-21.729-9.92-21.729-21.884s9.851-21.886 21.729-21.886 21.729 9.922 21.729 21.886c.291 11.963-9.85 21.884-21.729 21.884z" fill="#435e49"/><path d="m562.67 203.671c-11.879 0-21.729-9.921-21.729-21.885 0-11.963 9.851-21.884 21.729-21.884s21.729 9.921 21.729 21.884c.291 11.964-9.85 21.885-21.729 21.885z" fill="#435e49"/><path d="m562.67 322.723c-11.879 0-21.729-9.921-21.729-21.884 0-11.964 9.851-21.885 21.729-21.885s21.729 9.921 21.729 21.885c.291 11.963-9.85 21.884-21.729 21.884z" fill="#435e49"/></svg>