<svg enable-background="new 0 0 853 480" height="480" viewBox="0 0 853 480" width="853" xmlns="http://www.w3.org/2000/svg"><path d="m234.133 0h384.735v480h-384.735z" fill="#66b27f"/><path d="m278.401 46.096h312.339v403.949h-312.339z" fill="#231f20" opacity=".15"/><path d="m270.345 38.039h312.34v403.949h-312.34z" fill="#fff"/><g opacity=".5"><path d="m316.162 386.452h77.739c4.007 0 7.254 3.249 7.254 7.254v12.376c0 4.005-3.247 7.254-7.254 7.254h-77.739c-4.006 0-7.254-3.249-7.254-7.254v-12.376c.001-4.006 3.248-7.254 7.254-7.254z" opacity=".2"/><path d="m314.003 382.134h77.739c4.006 0 7.253 3.248 7.253 7.253v12.376c0 4.007-3.246 7.255-7.253 7.255h-77.739c-4.006 0-7.254-3.248-7.254-7.255v-12.376c0-4.005 3.248-7.253 7.254-7.253z" fill="#8db7e2"/></g><g opacity=".5"><path d="m422.501 386.452h47.589c4.006 0 7.254 3.249 7.254 7.254v12.376c0 4.005-3.248 7.254-7.254 7.254h-47.589c-4.008 0-7.255-3.249-7.255-7.254v-12.376c.001-4.006 3.247-7.254 7.255-7.254z" opacity=".2"/><path d="m420.342 382.134h47.59c4.006 0 7.254 3.248 7.254 7.253v12.376c0 4.007-3.248 7.255-7.254 7.255h-47.59c-4.007 0-7.255-3.248-7.255-7.255v-12.376c.001-4.005 3.248-7.253 7.255-7.253z" fill="#8db7e2"/></g><path d="m368.126 307.439h152.074c4.006 0 7.252 3.248 7.252 7.255v25.606c0 4.007-3.246 7.254-7.252 7.254h-152.074c-4.005 0-7.253-3.246-7.253-7.254v-25.606c.001-4.006 3.248-7.255 7.253-7.255z" opacity=".15"/><path d="m346.615 285.929h152.073c4.006 0 7.254 3.248 7.254 7.255v25.607c0 4.007-3.248 7.254-7.254 7.254h-152.073c-4.005 0-7.253-3.247-7.253-7.254v-25.607c.001-4.007 3.249-7.255 7.253-7.255z" fill="#79aad3"/><path d="m415.828 133.829h-70.68c-1.757-.015-3.182-1.428-3.211-3.185v-12.929c.008-1.854 1.375-3.421 3.211-3.683h70.68c1.867.265 3.243 1.88 3.21 3.766v12.846c-.028 1.757-1.453 3.17-3.21 3.185z" fill="#8db7e2" opacity=".5"/><g fill="#b0afad"><path d="m328.178 133.829h-18.217c-1.758-.015-3.183-1.428-3.212-3.185v-12.929c.011-1.854 1.375-3.421 3.212-3.683h18.217c1.867.265 3.244 1.88 3.211 3.766v12.846c-.029 1.757-1.454 3.17-3.211 3.185z"/><path d="m471.143 133.829h-37.955c-1.77 0-3.209-1.417-3.24-3.185v-12.929c.012-1.863 1.393-3.434 3.24-3.683h37.955c1.867.265 3.244 1.88 3.211 3.766v12.846c-.031 1.757-1.455 3.17-3.211 3.185z"/><path d="m549.74 133.829h-59.967c-1.756-.015-3.18-1.428-3.211-3.185v-12.929c.01-1.854 1.377-3.421 3.211-3.683h59.967c1.865.265 3.244 1.88 3.211 3.766v12.846c-.029 1.757-1.455 3.17-3.211 3.185z"/><path d="m309.962 173.529h28.736c1.773 0 3.211 1.438 3.211 3.211v13.455c0 1.772-1.438 3.21-3.211 3.21h-28.736c-1.774 0-3.212-1.438-3.212-3.21v-13.455c-.001-1.773 1.437-3.211 3.212-3.211z"/><path d="m354.699 173.529h21.067c1.773 0 3.212 1.438 3.212 3.211v13.455c0 1.772-1.438 3.21-3.212 3.21h-21.067c-1.772 0-3.21-1.438-3.21-3.21v-13.455c.001-1.773 1.438-3.211 3.21-3.211z"/><path d="m450.074 173.529h48.004c1.775 0 3.213 1.438 3.213 3.211v13.455c0 1.772-1.438 3.21-3.213 3.21h-48.004c-1.773 0-3.211-1.438-3.211-3.21v-13.455c.001-1.773 1.438-3.211 3.211-3.211z"/><path d="m514.36 173.529h14.479c1.773 0 3.213 1.438 3.213 3.211v13.455c0 1.772-1.439 3.21-3.213 3.21h-14.479c-1.773 0-3.213-1.438-3.213-3.21v-13.455c0-1.773 1.437-3.211 3.213-3.211z"/></g><path d="m391.881 173.529h40.309c1.775 0 3.211 1.438 3.211 3.211v13.455c0 1.772-1.438 3.21-3.211 3.21h-40.309c-1.773 0-3.212-1.438-3.212-3.21v-13.455c0-1.773 1.438-3.211 3.212-3.211z" fill="#8db7e2" opacity=".5"/><path d="m483.156 233.079h21.068c1.773 0 3.211 1.438 3.211 3.211v13.456c0 1.773-1.438 3.211-3.211 3.211h-21.068c-1.771 0-3.211-1.438-3.211-3.211v-13.456c.001-1.774 1.44-3.211 3.211-3.211z" fill="#b0afad"/><path d="m309.962 233.079h35.382c1.772 0 3.211 1.438 3.211 3.211v13.456c0 1.773-1.438 3.211-3.211 3.211h-35.382c-1.774 0-3.211-1.438-3.211-3.211v-13.456c-.002-1.774 1.436-3.211 3.211-3.211z" fill="#b0afad"/><path d="m362.202 233.079h103.32c1.773 0 3.211 1.438 3.211 3.211v13.456c0 1.773-1.438 3.211-3.211 3.211h-103.32c-1.771 0-3.212-1.438-3.212-3.211v-13.456c0-1.774 1.44-3.211 3.212-3.211z" fill="#79aad3"/></svg>