<svg enable-background="new 0 0 853 480" height="480" viewBox="0 0 853 480" width="853" xmlns="http://www.w3.org/2000/svg"><path d="m61.215 0h730.57v408.751h-730.57z" fill="#d4efff"/><path d="m61.215 408.751h730.57v71.249h-730.57z" fill="#34495e"/><path d="m83.694 424.762 28.173 16.275-28.173 16.275z" fill="#ecf0f1"/><path d="m128.652 435.001h633.163v18.749h-633.163z" fill="#2c3e50"/><path d="m128.652 435.001h194.819v18.749h-194.819z" fill="#ecf0f1"/><ellipse cx="153.865" cy="90.262" fill="#2a80bb" rx="64.065" ry="64.125"/><path d="m749.526 209.812 42.26 36.899v162.039h-730.571v-50.026l166.57-140.023 83.209 70.012 65.789-55.237 200.964-169.163z" fill="#3497da"/><g fill="#8e44ad"><ellipse cx="441.598" cy="144.6" rx="70.436" ry="70.5"/><path d="m441.598 61.049c46.121.001 83.512 37.424 83.512 83.588 0 46.165-37.391 83.588-83.512 83.588-46.12 0-83.509-37.423-83.509-83.588.042-46.147 37.405-83.546 83.509-83.588m0-14.999c-54.376 0-98.458 44.123-98.458 98.55 0 54.429 44.083 98.552 98.458 98.552 54.379 0 98.459-44.123 98.459-98.552 0-54.427-44.08-98.55-98.459-98.55z" opacity=".5"/><path d="m441.598 35.324c60.295 0 109.174 48.925 109.174 109.274 0 60.353-48.879 109.274-109.174 109.274-60.294 0-109.173-48.923-109.173-109.274.084-60.315 48.913-109.191 109.173-109.274m0-14.999c-68.551 0-124.121 55.623-124.121 124.237 0 68.613 55.57 124.236 124.121 124.236s124.123-55.623 124.123-124.236c0-68.614-55.572-124.237-124.123-124.237z" opacity=".25"/></g><path d="m441.598 180.074c-32.155-.015-60.223-21.814-68.223-52.987-9.63 37.725 13.119 76.119 50.809 85.756 37.688 9.64 76.049-13.131 85.676-50.854 2.924-11.449 2.924-23.451 0-34.9-8.004 31.185-36.092 52.988-68.262 52.985z" fill="#662f84" opacity=".5"/><path d="m574.489 238.124v20.776l-116.143-128.477s-17.834 154.913-24.203 285.488l63.168 64.088h294.475v-28.464z" opacity=".2"/><path d="m603.223 261.3v86.55c.207 22.045-5.541 43.731-16.633 62.775-6.604 11.562-15.769 21.452-26.789 28.913-10.64 7.291-23.224 11.209-36.117 11.249-10.338 0-20.717.302-31.02-.262-14.693-1.026-28.604-7.016-39.451-16.989-12.744-11.26-22.394-25.604-28.024-41.661-.654-1.771-1.603-3.421-2.809-4.874-7.27-8.588-14.462-17.288-22.068-25.612-10.542-11.257-23.162-20.362-37.165-26.812-7.015-3.03-11.855-9.607-12.663-17.212-1.087-8.926 3.334-15.001 10.752-19.312 7.867-4.188 16.794-5.962 25.664-5.102 10.409.517 20.534 3.581 29.484 8.927l1.499.713c0-3.339-.412-6.226-.412-9.076 0-43.912 0-98.062 0-141.975.074-15.058 12.331-27.202 27.375-27.127 1.562.008 3.121.151 4.658.427 13.696 1.892 23.661 13.968 22.929 27.787v45.3 12.038c12.534-8.948 29.939-6.031 38.88 6.513 1.889 2.65 3.299 5.612 4.168 8.75 7.457-5.778 17.338-7.361 26.225-4.199 9.125 3.002 15.881 10.756 17.609 20.213l1.873-1.163c12.859-8.319 30.021-4.628 38.332 8.244.074.114.147.229.221.344 2.299 3.812 3.504 8.184 3.484 12.637h-.002z" fill="#ecf0f1"/><g fill="#fff"><path d="m271.768 172.499h-81.786c-17.823.685-32.825-13.224-33.507-31.063-.507-13.245 7.117-25.459 19.232-30.811 0-1.051 0-1.801 0-2.851.273-21.269 17.721-38.288 38.969-38.016 15.319.197 29.062 9.474 34.988 23.614 3.454-3.013 7.895-4.653 12.477-4.612 10.627.021 19.236 8.639 19.256 19.275.007 3.688-1.061 7.298-3.071 10.387 12.93 2.312 22.376 13.518 22.479 26.663-.125 15.283-12.606 27.571-27.876 27.445-.388 0-.773-.01-1.161-.031z"/><path d="m236.777 172.499h-81.899c-17.824.616-32.773-13.349-33.389-31.19-.455-13.198 7.158-25.349 19.229-30.684 0-1.051 0-1.801 0-2.85.076-21.271 17.365-38.451 38.615-38.374 15.59.057 29.605 9.522 35.491 23.974 3.454-3.013 7.894-4.653 12.476-4.612 10.627.021 19.236 8.639 19.258 19.275.006 3.688-1.062 7.297-3.072 10.387 12.929 2.312 22.376 13.518 22.479 26.663-.121 15.283-12.598 27.575-27.867 27.454-.443-.004-.882-.018-1.321-.043z" opacity=".6"/><path d="m202.907 172.499h-81.75c-17.823.685-32.825-13.224-33.508-31.063-.507-13.245 7.117-25.459 19.234-30.811 0-1.051 0-1.801 0-2.851.116-21.271 17.438-38.417 38.688-38.3 15.563.086 29.542 9.549 35.417 23.976 3.456-3.015 7.895-4.655 12.478-4.612 10.626.021 19.234 8.638 19.256 19.274.006 3.688-1.062 7.298-3.072 10.388 12.929 2.311 22.377 13.517 22.479 26.661-.161 15.284-12.67 27.543-27.939 27.382-.428-.004-.856-.019-1.283-.044z" opacity=".3"/></g></svg>